<svg width="49" height="65" viewBox="0 0 49 65" fill="none" xmlns="http://www.w3.org/2000/svg">
<path fill-rule="evenodd" clip-rule="evenodd" d="M27.5335 16.8975C28.0026 12.1781 30.1221 3.06252 36.8455 5.87331C41.1233 7.66247 44.8358 13.1256 43.9008 17.8654C42.7287 23.8058 35.9293 23.8529 31.3023 22.5352C29.9701 22.1564 28.6637 21.6664 27.3806 21.1007C27.3523 19.6983 27.3947 18.2948 27.5335 16.8975ZM0.0406436 0.324367C5.88695 9.3037 14.3096 17.642 24.0478 22.632C24.2258 25.0936 24.5808 27.412 24.9869 29.3487C27.3471 40.5991 33.7407 52.3764 42.1338 60.2828C43.0513 61.1465 44.3922 60.4194 44.6595 59.4189C44.5761 59.9914 44.4856 60.5631 44.3879 61.1339C42.9099 60.8195 41.5283 60.2833 40.1739 59.4884C39.3465 59.0023 38.6083 58.2491 37.7582 57.8351C37.2519 57.5883 36.9727 57.8769 36.4576 57.5329C36.2934 57.4232 36.0287 57.5458 36.1116 57.7676C36.3389 58.3747 36.1039 58.8693 36.3568 59.4669C36.7547 60.4084 38.1491 61.5136 38.9294 62.0951C40.8729 63.5431 43.1413 64.4152 45.5085 64.8629C46.4973 65.0496 47.3087 64.3623 47.555 63.4482C48.1589 61.2072 48.4449 58.8803 48.5774 56.567C48.6916 54.5628 48.9511 52.2932 48.1953 50.4018C47.6035 48.9186 45.5123 49.077 45.1495 50.6336C44.7065 52.5331 45.0867 54.6043 44.9703 56.5553C44.9205 57.3918 44.8235 58.2173 44.7104 59.0403C44.7043 58.7748 44.6194 58.5026 44.427 58.2442C38.2089 49.8953 32.0749 42.1279 29.0967 31.9346C28.3642 29.4312 27.8439 26.8542 27.5757 24.2533C27.7967 24.3447 28.0156 24.4465 28.2387 24.5354C35.58 27.4417 47.186 26.8833 47.251 16.4734C47.2982 9.08466 38.4967 -1.62739 30.5235 3.15292C25.429 6.207 23.9289 12.9207 23.9299 19.3776C20.9721 17.7349 18.1571 15.7813 15.4917 13.8875C9.93488 9.94042 4.91688 5.17641 0.400686 0.0825225C0.221441 -0.119298 -0.116787 0.0829541 0.0406436 0.324367Z" fill="black"/>
</svg>
