<svg width="67" height="67" viewBox="0 0 67 67" fill="none" xmlns="http://www.w3.org/2000/svg">
<path d="M36.1245 59.2157C36.3364 59.7783 36.9046 60.1239 37.5016 60.0531C38.0986 59.9824 38.5704 59.5135 38.6448 58.917C39.4407 52.539 44.778 38.0406 59.6263 31.5773C60.1939 31.3302 60.5103 30.7189 60.3843 30.1128C60.2583 29.5067 59.7244 29.0721 59.1053 29.0718C51.715 29.0675 45.6617 25.6461 41.0523 21.2676C36.4328 16.8794 33.3486 11.6048 31.9395 8.13076C31.7161 7.58001 31.1493 7.24931 30.56 7.32586C29.9706 7.4024 29.507 7.86693 29.4318 8.45646C27.1547 26.2861 14.4889 34.0821 8.61628 35.7405C8.00145 35.9141 7.60222 36.5067 7.67232 37.1418C7.74242 37.7768 8.26129 38.2681 8.8992 38.3034C15.4424 38.6659 30.1565 43.3636 36.1245 59.2157Z" fill="#B3B3B3"/>
<path d="M26.8627 6.71876C26.9004 6.42404 27.1321 6.19151 27.4267 6.15324C27.7212 6.1152 28.0042 6.28086 28.1159 6.55608C29.5554 10.1052 32.689 15.461 37.3842 19.9211C42.0744 24.3763 48.2807 27.8999 55.887 27.9043C56.1965 27.9045 56.4632 28.1223 56.5263 28.4252C56.5893 28.7281 56.4316 29.0341 56.148 29.1577C41.0189 35.7433 35.5922 50.4951 34.7785 57.016C34.7411 57.314 34.5053 57.5478 34.207 57.5832C33.9086 57.6186 33.6246 57.4462 33.5187 57.1649C27.4302 40.993 12.4247 36.2021 5.71724 35.8305C5.39845 35.8127 5.13933 35.5671 5.10423 35.2497C5.06919 34.9323 5.26865 34.6363 5.57595 34.5494C11.6475 32.8348 24.5459 24.8592 26.8627 6.71876Z" fill="#FC75FF" stroke="black" stroke-width="1.30707" stroke-linejoin="round"/>
<path d="M41.8052 30.7771C35.3107 34.7484 32.8624 41.7346 32.1789 44.9761C30.0117 40.8297 24.4522 34.2331 19.5198 33.5663C21.485 32.9083 26.4843 26.8875 28.8313 19.4546C33.082 26.9567 39.1177 30.0529 41.8052 30.7771Z" fill="white" stroke="black" stroke-width="1.30707" stroke-linecap="round" stroke-linejoin="round"/>
</svg>
