<svg width="53" height="58" viewBox="0 0 53 58" fill="none" xmlns="http://www.w3.org/2000/svg">
<path d="M4.19527 56.1907C4.16909 56.648 4.36948 57.0889 4.73121 57.3699C5.09294 57.6509 5.56973 57.736 6.00634 57.5975L22.4646 52.3778C22.7396 52.2905 22.9808 52.12 23.1547 51.8897L49.8836 16.5025C50.178 16.1127 50.2467 15.5972 50.0645 15.1441C48.3177 10.7973 44.9674 7.60766 41.4104 5.55036C37.8729 3.50436 33.9869 2.49498 31.0102 2.65098C30.5838 2.67333 30.1911 2.89014 29.9451 3.23917L5.4484 37.9866C5.2985 38.1992 5.21117 38.4495 5.19629 38.7093L4.19527 56.1907Z" fill="#B3B3B3"/>
<path d="M28.1212 0.710882C30.9348 0.563451 34.6882 1.52341 38.1363 3.51773C41.5942 5.51771 44.8182 8.60045 46.4933 12.7688C46.5841 12.9952 46.5496 13.2526 46.4027 13.4473L19.6732 48.8352C19.5863 48.95 19.4662 49.0355 19.329 49.0791L2.87064 54.2982C2.65241 54.3674 2.41382 54.3253 2.23298 54.185C2.05223 54.0445 1.95153 53.8241 1.96446 53.5957L2.96596 36.114L2.9785 36.0175C2.99743 35.9226 3.03556 35.8321 3.09174 35.7524L27.589 1.00476L27.6376 0.942567C27.7605 0.804691 27.9346 0.720663 28.1212 0.710882Z" fill="white" stroke="black" stroke-width="1.39241" stroke-linejoin="round"/>
<path d="M28.1577 1.4062L3.66106 36.1536C6.76134 36.5576 14.1932 39.5754 19.1183 48.4152L45.8472 13.028C42.6403 5.04801 33.459 1.12837 28.1577 1.4062Z" fill="#FF5757"/>
<path d="M24.0088 6.57039C29.0546 6.44281 33.1325 8.42242 36.1624 10.9227C39.1832 13.4155 41.1905 16.4476 42.1242 18.5088C42.2294 18.741 42.1996 19.0125 42.0459 19.216L19.6738 48.8347C19.5313 49.0233 19.3029 49.1273 19.0672 49.11C18.8315 49.0927 18.6209 48.9565 18.5075 48.7491C13.8406 40.2142 6.524 37.2592 3.56414 36.843C3.32394 36.8092 3.11868 36.6529 3.02227 36.4304C2.9259 36.2077 2.95263 35.9512 3.09238 35.7529L23.4571 6.8653L23.5084 6.80099C23.6356 6.65969 23.8164 6.57526 24.0088 6.57039Z" fill="#F8D044" stroke="black" stroke-width="1.39241" stroke-linejoin="round"/>
<path d="M3.16031 44.8945L2.6598 53.6352L10.8889 51.0253C8.18562 47.3326 4.61014 45.3995 3.16031 44.8945Z" fill="black"/>
<path d="M17.2966 46.0708L40.2309 15.5991" stroke="black" stroke-width="1.39241" stroke-linecap="round" stroke-linejoin="round"/>
<path d="M9.7624 39.4938L31.2545 8.21537" stroke="black" stroke-width="1.39241" stroke-linecap="round" stroke-linejoin="round"/>
</svg>
