<svg width="71" height="61" viewBox="0 0 71 61" fill="none" xmlns="http://www.w3.org/2000/svg">
<path d="M64.1943 39.5333L64.7992 40.0229C64.9375 39.8518 64.997 39.63 64.9627 39.4126L64.1943 39.5333C64.9627 39.4121 64.963 39.4121 64.9629 39.4117L64.9623 39.4105C64.9621 39.4094 64.9617 39.408 64.9614 39.4062C64.9608 39.4027 64.9603 39.3977 64.9593 39.3915C64.9572 39.3789 64.9544 39.3608 64.9505 39.3376C64.9425 39.2908 64.93 39.2226 64.9138 39.1347C64.8815 38.9585 64.8326 38.7018 64.7634 38.3755C64.6249 37.7231 64.4067 36.7901 64.0866 35.6565C63.4469 33.3907 62.3971 30.314 60.7545 27.0759C57.4748 20.6111 51.7809 13.4058 42.1894 10.8357C32.5979 8.26577 24.0642 11.6587 17.9915 15.6176C14.9499 17.6005 12.5024 19.7402 10.8154 21.3826C9.97151 22.2042 9.31593 22.9032 8.86987 23.3989C8.64676 23.6468 8.47603 23.8447 8.36001 23.9811C8.30209 24.0492 8.25709 24.102 8.22684 24.1385C8.21183 24.1566 8.2003 24.171 8.19225 24.1808C8.18827 24.1857 8.1853 24.1897 8.18305 24.1925C8.18195 24.1939 8.18083 24.1949 8.18016 24.1958L8.17896 24.1965L8.78378 24.6861L8.01518 24.8077C7.9809 24.5904 8.04037 24.3685 8.17871 24.1974L8.78378 24.6861M64.1943 39.5333C64.7992 40.0224 64.7992 40.0235 64.7989 40.0239L64.7977 40.0246C64.797 40.0254 64.7959 40.0265 64.7948 40.0278C64.7926 40.0306 64.7896 40.0347 64.7856 40.0395C64.7775 40.0494 64.7661 40.0636 64.751 40.0818C64.7207 40.1184 64.6759 40.1711 64.6179 40.2392C64.5018 40.3756 64.3311 40.5735 64.108 40.8215C63.6619 41.3172 63.0063 42.0162 62.1624 42.8378C60.4754 44.4802 58.028 46.6198 54.9864 48.6027C48.9137 52.5616 40.3802 55.9537 30.7887 53.3836C21.1973 50.8136 15.503 43.6092 12.2234 37.1444C10.5808 33.9064 9.53102 30.8297 8.89124 28.5638C8.57119 27.4303 8.35292 26.4972 8.21448 25.8448C8.14524 25.5185 8.09632 25.2618 8.06404 25.0857C8.0479 24.9977 8.03537 24.9295 8.02742 24.8828C8.02346 24.8595 8.02067 24.8414 8.01861 24.8289C8.01759 24.8226 8.01706 24.8177 8.01649 24.8141C8.0162 24.8124 8.01578 24.8109 8.01561 24.8099L8.01492 24.8087C8.01485 24.8082 8.01544 24.8072 8.78378 24.6861" fill="#B3B3B3" stroke="#B3B3B3" stroke-width="1.55568" stroke-linejoin="round"/>
<path d="M61.7896 35.3694L62.3944 35.859C62.5328 35.6879 62.5922 35.4661 62.5579 35.2487L61.7896 35.3694C62.5579 35.2482 62.5582 35.2482 62.5582 35.2477L62.5575 35.2465C62.5573 35.2455 62.5569 35.244 62.5566 35.2423C62.556 35.2387 62.5555 35.2338 62.5545 35.2275C62.5524 35.215 62.5496 35.1969 62.5457 35.1736C62.5377 35.1269 62.5252 35.0587 62.509 34.9707C62.4768 34.7946 62.4278 34.5379 62.3586 34.2116C62.2202 33.5592 62.0019 32.6261 61.6818 31.4926C61.0421 29.2267 59.9923 26.15 58.3497 22.912C55.07 16.4472 49.3761 9.24184 39.7846 6.67181C30.1931 4.10183 21.6594 7.49478 15.5867 11.4537C12.5451 13.4366 10.0977 15.5762 8.41066 17.2186C7.56672 18.0403 6.91114 18.7392 6.46508 19.2349C6.24198 19.4829 6.07124 19.6808 5.95522 19.8172C5.89731 19.8852 5.85231 19.9381 5.82205 19.9746C5.80704 19.9927 5.79551 20.007 5.78747 20.0169C5.78349 20.0217 5.78051 20.0258 5.77827 20.0286C5.77717 20.0299 5.77604 20.031 5.77537 20.0318L5.77417 20.0325L6.379 20.5222L5.61039 20.6438C5.57612 20.4264 5.63559 20.2046 5.77392 20.0335L6.379 20.5222M61.7896 35.3694C62.3944 35.8585 62.3944 35.8596 62.3941 35.8599L62.3929 35.8606C62.3923 35.8615 62.3911 35.8626 62.39 35.8639C62.3878 35.8667 62.3848 35.8707 62.3808 35.8756C62.3728 35.8855 62.3613 35.8997 62.3462 35.9179C62.316 35.9544 62.2711 36.0071 62.2131 36.0753C62.0971 36.2117 61.9263 36.4096 61.7032 36.6575C61.2571 37.1533 60.6016 37.8522 59.7576 38.6738C58.0706 40.3163 55.6232 42.4559 52.5816 44.4388C46.5089 48.3976 37.9754 51.7897 28.3839 49.2197C18.7925 46.6496 13.0983 39.4453 9.81863 32.9805C8.17598 29.7424 7.12623 26.6657 6.48645 24.3999C6.16641 23.2663 5.94813 22.3333 5.80969 21.6809C5.74045 21.3546 5.69154 21.0979 5.65925 20.9217C5.64312 20.8338 5.63059 20.7656 5.62263 20.7188C5.61867 20.6956 5.61588 20.6775 5.61382 20.6649C5.6128 20.6587 5.61227 20.6537 5.6117 20.6502C5.61142 20.6484 5.611 20.647 5.61083 20.6459L5.61014 20.6447C5.61007 20.6443 5.61065 20.6433 6.379 20.5222" fill="#44E2F8" stroke="black" stroke-width="1.55568" stroke-linejoin="round"/>
<path d="M37.0368 13.5145C44.2054 15.1159 48.4834 22.7349 46.7681 30.4138C45.0526 38.0927 37.939 43.1667 30.7703 41.5652C23.6017 39.9636 19.3236 32.3448 21.039 24.6659C22.7545 16.9872 29.8683 11.9132 37.0368 13.5145Z" fill="white" stroke="black" stroke-width="1.55568" stroke-linecap="round" stroke-linejoin="round"/>
<path d="M35.8467 18.439C40.4208 19.461 43.2402 24.0922 42.2006 28.7461C41.1608 33.3997 36.6387 36.3901 32.0647 35.3683C27.4906 34.3465 24.6701 29.7158 25.7096 25.062C26.7493 20.4081 31.2725 17.4171 35.8467 18.439Z" fill="#FC75FF" stroke="black" stroke-width="1.55568" stroke-linecap="round" stroke-linejoin="round"/>
<ellipse cx="33.6399" cy="26.1624" rx="3.81325" ry="3.92484" transform="rotate(12.5931 33.6399 26.1624)" fill="black"/>
</svg>
