<svg xmlns="http://www.w3.org/2000/svg" viewBox="0 0 500 435.354"><g id="freepik--background-simple--inject-85"><g><path d="M406.375,134.341c-4.164-17.161-13.031-33.709-26.938-48.386-16.391-17.298-41.926-34.972-75.326-29.752-61.661,9.637-62.784,55.871-104.244,46.639-46.962-10.456-102.049-3.444-117.367,43.475-29.096,89.116,141.149,196.843,234.697,166.587,58.239-18.836,111.289-87.443,89.177-178.563Z" style="fill:#FFC9F0;"></path><path d="M406.375,134.341c-4.164-17.161-13.031-33.709-26.938-48.386-16.391-17.298-41.926-34.972-75.326-29.752-61.661,9.637-62.784,55.871-104.244,46.639-46.962-10.456-102.049-3.444-117.367,43.475-29.096,89.116,141.149,196.843,234.697,166.587,58.239-18.836,111.289-87.443,89.177-178.563Z" style="fill:#fff; opacity:.9;"></path></g></g><g id="freepik--Shadow--inject-85"><path d="M380.437,429.222c0,3.387-58.781,6.132-131.29,6.132s-131.29-2.745-131.29-6.132,58.781-6.132,131.29-6.132,131.29,2.745,131.29,6.132Z" style="fill:#f5f5f5;"></path></g><g id="freepik--Hearts--inject-85"><path d="M334.972,109.493c2.419-1.949,5.066-1.963,7.651-1.186,2.016,.606,3.241,1.965,4.708,3.632,.68,.772,1.372,2.023,1.914,3.374,.542-1.351,1.234-2.601,1.914-3.374,1.467-1.666,2.692-3.025,4.708-3.632,2.585-.777,5.232-.763,7.651,1.186,2.271,1.831,2.643,5.207,1.97,8.047-.673,2.84-2.543,5.725-4.372,7.827-3.836,4.408-7.238,7.743-11.87,10.149-5.742-3.288-8.034-5.742-11.87-10.149-1.829-2.102-3.699-4.987-4.372-7.827-.673-2.84-.301-6.216,1.97-8.047Z" style="fill:#FFC9F0;"></path><path d="M283.098,51.833c1.032-.832,2.161-.838,3.264-.506,.86,.259,1.383,.839,2.009,1.55,.29,.33,.585,.863,.817,1.44,.231-.577,.527-1.11,.817-1.44,.626-.711,1.148-1.291,2.009-1.55,1.103-.332,2.232-.326,3.264,.506,.969,.781,1.127,2.222,.84,3.433-.287,1.212-1.085,2.443-1.865,3.339-1.637,1.881-3.088,3.304-5.064,4.33-2.45-1.403-3.428-2.45-5.065-4.33-.781-.897-1.578-2.128-1.866-3.339-.287-1.212-.129-2.652,.84-3.433Z" style="fill:#FFC9F0;"></path><path d="M219.339,187.06c.535-.431,1.121-.434,1.692-.262,.446,.134,.717,.435,1.041,.803,.15,.171,.304,.447,.423,.746,.12-.299,.273-.575,.423-.746,.324-.369,.595-.669,1.041-.803,.572-.172,1.157-.169,1.692,.262,.502,.405,.584,1.152,.436,1.78-.149,.628-.562,1.266-.967,1.731-.849,.975-1.601,1.713-2.626,2.245-1.27-.727-1.777-1.27-2.626-2.245-.405-.465-.818-1.103-.967-1.731-.149-.628-.067-1.375,.436-1.78Z" style="fill:#FFC9F0;"></path><path d="M170.286,109.777c.535-.431,1.12-.434,1.692-.262,.446,.134,.717,.435,1.041,.803,.15,.171,.304,.447,.423,.746,.12-.299,.273-.575,.423-.746,.325-.369,.595-.669,1.041-.803,.572-.172,1.157-.169,1.692,.262,.502,.405,.584,1.152,.436,1.78-.149,.628-.563,1.266-.967,1.731-.849,.975-1.601,1.713-2.626,2.245-1.27-.727-1.777-1.27-2.626-2.245-.405-.465-.818-1.103-.967-1.731s-.067-1.375,.436-1.78Z" style="fill:#FFC9F0;"></path><path d="M333.3,90.156c.535-.431,1.121-.434,1.692-.262,.446,.134,.717,.435,1.041,.803,.15,.171,.304,.448,.423,.746,.12-.299,.273-.575,.423-.746,.325-.369,.595-.669,1.041-.803,.572-.172,1.157-.169,1.692,.262,.502,.405,.584,1.152,.436,1.78-.149,.628-.563,1.266-.967,1.731-.849,.975-1.601,1.713-2.626,2.245-1.27-.727-1.777-1.27-2.626-2.245-.405-.465-.818-1.103-.967-1.731-.149-.628-.067-1.375,.436-1.78Z" style="fill:#FFC9F0;"></path><g><path d="M323.845,159.101c1.501-1.209,3.143-1.218,4.747-.736,1.251,.376,2.011,1.219,2.921,2.253,.422,.479,.852,1.255,1.188,2.093,.336-.838,.766-1.614,1.188-2.093,.91-1.034,1.67-1.877,2.921-2.253,1.604-.482,3.246-.474,4.747,.736,1.409,1.136,1.64,3.231,1.222,4.993-.418,1.762-1.578,3.552-2.713,4.856-2.38,2.735-4.491,4.805-7.365,6.297-3.563-2.04-4.985-3.562-7.365-6.297-1.135-1.304-2.295-3.094-2.713-4.856-.418-1.762-.187-3.857,1.222-4.993Z" style="fill:#FFC9F0;"></path><g style="opacity:.3;"><path d="M323.845,159.101c1.501-1.209,3.143-1.218,4.747-.736,1.251,.376,2.011,1.219,2.921,2.253,.422,.479,.852,1.255,1.188,2.093,.336-.838,.766-1.614,1.188-2.093,.91-1.034,1.67-1.877,2.921-2.253,1.604-.482,3.246-.474,4.747,.736,1.409,1.136,1.64,3.231,1.222,4.993-.418,1.762-1.578,3.552-2.713,4.856-2.38,2.735-4.491,4.805-7.365,6.297-3.563-2.04-4.985-3.562-7.365-6.297-1.135-1.304-2.295-3.094-2.713-4.856-.418-1.762-.187-3.857,1.222-4.993Z" style="fill:#fff;"></path></g></g><g><path d="M159.741,145.183c2.322-1.871,4.863-1.885,7.345-1.138,1.936,.582,3.111,1.887,4.52,3.486,.653,.742,1.318,1.942,1.838,3.239,.52-1.297,1.185-2.497,1.838-3.239,1.409-1.6,2.584-2.904,4.52-3.486,2.482-.746,5.023-.733,7.345,1.138,2.181,1.757,2.537,4.999,1.891,7.725-.646,2.726-2.441,5.496-4.197,7.514-3.683,4.231-6.948,7.434-11.396,9.743-5.513-3.157-7.713-5.512-11.396-9.743-1.756-2.018-3.551-4.788-4.198-7.514-.646-2.726-.289-5.968,1.891-7.725Z" style="fill:#FFC9F0;"></path><g style="opacity:.3;"><path d="M159.741,145.183c2.322-1.871,4.863-1.885,7.345-1.138,1.936,.582,3.111,1.887,4.52,3.486,.653,.742,1.318,1.942,1.838,3.239,.52-1.297,1.185-2.497,1.838-3.239,1.409-1.6,2.584-2.904,4.52-3.486,2.482-.746,5.023-.733,7.345,1.138,2.181,1.757,2.537,4.999,1.891,7.725-.646,2.726-2.441,5.496-4.197,7.514-3.683,4.231-6.948,7.434-11.396,9.743-5.513-3.157-7.713-5.512-11.396-9.743-1.756-2.018-3.551-4.788-4.198-7.514-.646-2.726-.289-5.968,1.891-7.725Z" style="fill:#fff;"></path></g></g></g><g id="freepik--Character--inject-85"><g><g><path d="M254.208,81.985c-.131,0-.262-.051-.359-.153-.192-.199-.187-.515,.012-.707,4.932-4.758,8.669-10.716,10.808-17.229,.085-.263,.368-.407,.631-.319,.262,.086,.405,.369,.318,.631-2.188,6.667-6.014,12.766-11.062,17.637-.098,.094-.223,.14-.348,.14Z" style="fill:#263238;"></path><path d="M233.658,44.156c4.845,.222,9.758,.586,14.347,2.332,10.383,3.822,14.606,14.255,9.865,24.236-2.111,4.435-5.647,8.042-9.679,10.752,3.724-3.006,7.069-6.656,8.979-11.071,4.246-9.687,.333-19.265-9.451-23.207-4.437-1.875-9.309-2.409-14.061-3.042h0Z" style="fill:#263238;"></path><path d="M259.317,62.816c-.662-3.036-4.379-11.386-15.934-16.967-6.722-3.246-11.584-4.087-22.37-2.505-13.075,1.918-24.067,11.872-29.623,23.862-2.145,4.629-3.606,9.692-3.297,14.785,.309,5.092,2.574,10.217,6.714,13.197-5.173-.02-8.759,6.25-7.276,11.206,1.482,4.956,6.547,8.16,11.653,8.989,5.107,.829,10.307-.265,15.365-1.354l38.543-33.597c2.532-1.801,8.682-6.35,6.225-17.617Z" style="fill:#263238;"></path><path d="M227.901,100.799c-9.081,0-17.568-4.905-22.074-10.758-5.156-6.699-7.083-15.513-5.729-26.196,.746-5.875,6.476-14.688,13.817-18.441,.247-.124,.548-.027,.673,.218,.125,.246,.028,.547-.218,.673-6.956,3.556-12.582,12.17-13.28,17.677-1.321,10.412,.54,18.978,5.528,25.46,6.078,7.895,17.72,12.042,27.078,9.646,.266-.067,.541,.093,.608,.36,.068,.268-.093,.54-.36,.608-2.019,.517-4.046,.754-6.043,.754Z" style="fill:#fff; opacity:.3;"></path><path d="M248.909,85.667c-.043,0-.086-.005-.129-.017-.267-.071-.425-.345-.354-.612,2.777-10.395,1.487-21.494-3.452-29.69-3.767-6.252-9.357-10.382-16.166-11.941-.269-.062-.437-.33-.375-.599,.062-.269,.331-.438,.599-.375,7.079,1.621,12.888,5.909,16.799,12.399,5.076,8.424,6.407,19.812,3.561,30.464-.06,.224-.262,.371-.482,.371Z" style="fill:#fff; opacity:.3;"></path><path d="M212.276,109.221c-3.627,0-7.269-1.159-10.205-3.283-3.396-2.457-5.86-6.212-6.761-10.304-.06-.27,.111-.536,.381-.596,.268-.061,.536,.111,.596,.381,.849,3.855,3.171,7.394,6.371,9.708,3.198,2.314,7.286,3.413,11.215,3.013,.29-.02,.52,.173,.548,.447,.028,.275-.172,.52-.447,.548-.564,.057-1.131,.085-1.698,.085Z" style="fill:#fff; opacity:.3;"></path><path d="M214.107,44.78c-9.451,.29-19.153,3.313-25.349,10.82-6.247,7.568-7.844,19.171-3.337,27.965,2.752,5.37,7.724,9.569,13.632,10.966,.469,.111,.67-.612,.199-.723-5.25-1.241-9.714-4.747-12.476-9.349-3.109-5.182-3.796-11.488-2.585-17.35,1.57-7.604,6.246-13.78,13.067-17.47,5.165-2.794,11.022-3.93,16.848-4.109,.481-.015,.484-.765,0-.75h0Z" style="fill:#263238;"></path><path d="M199.134,119.71c-1.024,0-2-.118-2.886-.375-5.043-1.462-8.972-5.945-9.552-10.903-.581-4.962,2.218-10.152,6.808-12.62,.243-.131,.547-.04,.677,.204,.131,.243,.04,.546-.204,.677-4.237,2.278-6.822,7.058-6.288,11.623,.535,4.569,4.169,8.706,8.837,10.059,4.816,1.395,12.444-1.631,15.552-5.069,.186-.204,.502-.221,.706-.035,.205,.185,.221,.501,.035,.706-2.73,3.019-8.768,5.733-13.686,5.733Z" style="fill:#263238;"></path><path d="M244.055,49.421l-.998-.057c.177-3.135-1.699-6.415-4.669-8.162-2.705-1.591-6.252-1.998-9.731-1.115-2.96,.751-5.933,2.406-8.837,4.919l-.654-.756c3.022-2.616,6.133-4.343,9.245-5.133,3.734-.947,7.555-.501,10.484,1.222,3.284,1.932,5.358,5.581,5.16,9.081Z" style="fill:#263238;"></path></g><path d="M317.775,217.713c1.149,.921,7.759,2.487,17.63,17.152,8.844,13.14,50.99,65.297,49.613,83.604-1.231,16.361-52.14,69.512-52.14,69.512l-10.287-11.539,31.618-57.365-29.65-30.414-6.785-70.95Z" style="fill:#fdbbb5;"></path><path d="M195.542,225.427c-1.437,.921-9.703,2.487-22.045,17.152-11.059,13.14-60.226,65.928-58.504,84.235,1.539,16.361,67.08,61.583,67.08,61.583l13.469-15.344-43.396-50.68,41.575-46.852,1.821-50.094Z" style="fill:#fdbbb5;"></path><g><path d="M303.545,214.432s15.302-1.051,24.236,9.634c6.026,7.208,36.733,46.373,36.733,46.373l-30.885,33.69-14.276-14.379-15.807-75.318Z" style="fill:#FFC9F0;"></path><path d="M323.136,293.561s.666-11.785-.08-21.704c-.746-9.919-3.232-20.977-3.232-20.977,0,0,7.29,9.425,9.841,19.13,2.551,9.704,3.964,34.119,3.964,34.119l-10.493-10.568Z" style="opacity:.2;"></path><path d="M324.559,272.406c0-16.128-19.024-57.689-19.024-57.689l-11.856-1.695-96.212,5.011,.869,2.031c6.787,28.539-9.712,59.396-9.712,59.396l6.345,11.026,16.868,76.289-30.785,59.854h143.508l-7.706-51.3s7.706-86.796,7.706-102.923Z" style="fill:#FFC9F0;"></path><path d="M201.169,218.432s-7.637-3.478-22.24,10.115c-13.733,12.784-40.709,45.613-40.709,45.613l33.371,41.484,29.048-31.005,.529-66.207Z" style="fill:#FFC9F0;"></path><polygon points="194.968 290.486 202.962 280.431 200.927 317.436 194.968 290.486" style="opacity:.2;"></polygon><path d="M252.806,334.159c-1.846,.911,28.916-33.326,28.916-33.326,0,0-6.415,22.217-28.916,33.326Z" style="opacity:.2;"></path><g style="opacity:.2;"><path d="M302.452,317.505c-21.769,20.574-21.769,18.372-42.158,26.604l42.158-26.604Z"></path></g></g><g><path d="M315.385,147.292c-5.965-2.159-10.242-8.329-10.172-14.671l1,.011c-.066,5.932,3.935,11.702,9.512,13.72l-.34,.94Z" style="fill:#263238;"></path><path d="M273.949,210.074c-3.674-3.63-4.467-6.501-3.803-11.816,.46-4.086,1.755-8.337,3.303-12.478l-5.483-5.896-28.496-26.464c1.449,18.402,6.423,48.086-7.566,58.688,0,0-15.805,5.179-26.216,5.179,4.818,3.631,42.067,48.809,69.587,45.436,25.034-3.069,22.73-42.599,18.403-49.701-8.669-.746-12.936-1.705-19.729-2.948Z" style="fill:#fdbbb5;"></path><path d="M270.217,200.634c-7.822-1.795-19.106-6.974-21.037-15.894-.794-3.67-.899-7.313-.696-9.74l23.37,14.496c-.262,3.486-2.181,6.144-1.637,11.138Z" style="opacity:.2;"></path><path d="M227.964,124.247c3.87,27.975,4.916,39.866,20.093,53.928,22.829,21.152,56.035,12.15,60.525-15.964,4.042-25.304-2.966-66.802-31.092-77.336-27.71-10.378-53.397,11.396-49.527,39.372Z" style="fill:#fdbbb5;"></path><path d="M259.435,123.944c.36,.02,.717-.105,.98-.376,4.102-4.248,9.051-3.114,9.108-3.101,.733,.17,1.441-.279,1.565-1.025,.122-.745-.38-1.492-1.123-1.673-.259-.061-6.471-1.49-11.56,3.784-.507,.525-.468,1.403,.086,1.961,.268,.267,.607,.413,.944,.431Z" style="fill:#263238;"></path><path d="M299.126,116.5c.324-.11,.599-.336,.752-.655,.315-.659-.008-1.465-.718-1.799-7.127-3.352-12.625-.331-12.857-.197-.653,.369-.839,1.186-.414,1.826,.423,.639,1.294,.858,1.947,.493,.214-.121,4.515-2.403,10.182,.263,.367,.172,.766,.186,1.108,.069Z" style="fill:#263238;"></path><path d="M283.876,129.329s4.881,10.313,10.142,16.64c.919,1.106,.46,2.803-.865,3.361-3.41,1.437-7.523,.469-7.523,.469l-1.753-20.47Z" style="fill:#ee7c74;"></path><path d="M273.027,127.902l-6.507,1.284,.011,.018c-1.576,.284-2.749,2.173-2.706,4.541,.049,2.637,1.585,4.861,3.432,4.968,1.847,.108,3.304-1.942,3.256-4.578-.027-1.51-.545-2.883-1.328-3.803,1.888-.446,3.842-2.43,3.842-2.43Z" style="fill:#263238;"></path><path d="M300.997,124.791l-6.436,1.397c.023,.041-.023-.038,0,0-1.607,.246-2.81,2.153-2.766,4.551,.049,2.636,1.585,4.86,3.432,4.968,1.847,.108,3.304-1.942,3.255-4.578-.028-1.56-.58-2.971-1.407-3.89,1.912-.408,3.921-2.448,3.921-2.448Z" style="fill:#263238;"></path><path d="M241.14,172.522c-51.628-17.871-31.373-93.203,17.867-93.35,63.394-.188,49.748,55.422,49.748,55.422-14.814-42.104-56.632-35.08-56.632-35.08,9.427,21.743-9.699,36.001-9.699,36.001-5.5,13.495-1.285,37.007-1.285,37.007Z" style="fill:#263238;"></path><path d="M224.66,146.979c3.209,5.022,8.187,8.038,12.665,8.944,6.735,1.363,9.679-9.501,7.099-16.068-2.323-5.911-9.05-9.584-15.469-7.975-6.325,1.585-7.965,9.356-4.295,15.098Z" style="fill:#fdbbb5;"></path><path d="M234.253,137.256c-2.958-1.023-6.239,1.297-6.338,4.399-.076,2.375,1.239,4.65,3.032,6.129,1.517,1.251,3.35,2.011,5.252,2.456,.47,.11,.67-.613,.199-.723-2.7-.631-5.361-1.974-6.803-4.443-.846-1.449-1.352-3.461-.524-5.03,.943-1.786,3.058-2.729,4.983-2.064,.457,.158,.653-.566,.199-.723h0Z" style="opacity:.2;"></path><g><path d="M280.794,157.296c-1.794,2.559-4.019,7.563-4.019,7.563-.489-.12-.979-.24-1.461-.385-6.6-1.792-9.07-4.805-9.806-7.6-.397-1.531-.256-3.01,.012-4.175,.296-1.351,.814-2.246,.814-2.246,2.931,3.04,8.955,5.185,12.221,6.197,1.363,.438,2.24,.646,2.24,.646Z" style="fill:#263238;"></path><path d="M278.554,156.65l-1.243,2.199c-6.212-1.703-10.358-3.736-11.792-6.149,.296-1.351,.814-2.246,.814-2.246,2.931,3.04,8.955,5.185,12.221,6.197Z" style="fill:#fff;"></path><path d="M275.313,164.474c-6.6-1.792-9.07-4.805-9.806-7.6,2.226,.697,4.831,1.786,6.934,3.443,1.613,1.26,2.436,2.754,2.872,4.157Z" style="fill:#fb504e;"></path></g><path d="M252.462,99.39c-.271,0-.494-.217-.5-.489-.006-.276,.213-.504,.489-.511,3.842-.084,7.814-.171,11.591-1.09,2.921-.71,6.979-2.268,9.727-5.65,2.5-3.081,3.264-7.309,1.9-10.521-.108-.254,.011-.547,.265-.656,.252-.107,.547,.011,.655,.265,1.528,3.598,.726,8.128-2.044,11.541-2.922,3.599-7.196,5.245-10.267,5.992-3.883,.944-7.91,1.033-11.806,1.118h-.011Z" style="fill:#fff; opacity:.3;"></path><path d="M284.254,104.941c-.273,0-.496-.219-.5-.493-.004-.276,.217-.503,.493-.507,5.834-.083,11.372-3.71,13.781-9.026,.113-.252,.412-.362,.661-.249,.252,.114,.363,.41,.249,.662-2.564,5.661-8.463,9.524-14.678,9.613h-.007Z" style="fill:#fff; opacity:.3;"></path><path d="M255.221,79.337c-9.132,1.491-17.653,5.642-24.469,11.866-6.808,6.189-13.045,13.109-17.04,21.489,3.139-8.79,9.486-16.103,16.436-22.169,6.914-6.239,15.809-10.273,25.072-11.186h0Z" style="fill:#FFC9F0;"></path><path d="M251.189,100.114c-.051,0-.103-.008-.153-.024-.263-.084-.407-.366-.323-.629,1.017-3.16,.405-6.767-1.599-9.414-2.003-2.646-5.313-4.206-8.625-4.097-.275,.028-.507-.205-.518-.481-.01-.276,.206-.508,.481-.518,3.635-.14,7.262,1.59,9.458,4.493,2.196,2.902,2.869,6.858,1.753,10.324-.067,.212-.265,.347-.476,.347Z" style="fill:#fff; opacity:.3;"></path><path d="M242.616,135.978l-.384-.924c4.92-2.042,9.858-9.097,11.611-14.462,3.859-11.805-.644-18.882-2.115-20.77l.789-.615c1.549,1.987,6.289,9.422,2.277,21.696-1.822,5.575-6.997,12.924-12.179,15.075Z" style="fill:#263238;"></path><path d="M245.064,173.022c-.103,0-.206-.032-.295-.097-.223-.163-.271-.476-.107-.699,3.321-4.524,3.664-12.257,.764-17.239-.523-.899-1.152-1.74-1.761-2.555-1.002-1.341-2.039-2.728-2.682-4.452-.749-2.008-.953-4.496-.589-7.197,.321-2.387,1.019-4.651,1.693-6.84,.081-.264,.358-.413,.625-.331,.264,.082,.412,.361,.331,.625-.663,2.15-1.349,4.374-1.658,6.679-.341,2.538-.156,4.86,.535,6.714,.594,1.59,1.542,2.86,2.546,4.203,.625,.837,1.272,1.702,1.824,2.65,3.134,5.384,2.772,13.437-.823,18.334-.098,.133-.25,.204-.403,.204Z" style="fill:#263238;"></path><path d="M208.838,164.974c-.219,0-.419-.145-.481-.366-2.483-8.892-.905-11.327,.923-14.146,1.781-2.748,3.801-5.863,2.068-16.71-.196-1.23-.68-2.346-1.193-3.527-.58-1.338-1.181-2.723-1.347-4.311-.225-2.13,.2-4.591,1.226-7.116,.906-2.229,2.147-4.248,3.348-6.2,.144-.235,.452-.31,.688-.164,.235,.145,.309,.453,.164,.688-1.179,1.917-2.398,3.9-3.272,6.053-.965,2.374-1.365,4.668-1.158,6.635,.151,1.436,.695,2.69,1.271,4.018,.515,1.186,1.046,2.413,1.263,3.767,1.793,11.227-.337,14.513-2.216,17.412-1.696,2.616-3.16,4.875-.799,13.333,.074,.266-.081,.542-.347,.616-.045,.013-.09,.019-.135,.019Z" style="fill:#263238;"></path></g><g><path d="M334.029,224.656c-.11,0-.219-.048-.293-.141-7.136-8.939-15.006-12.593-29.038-13.482-.207-.013-.364-.191-.351-.398,.014-.206,.188-.384,.397-.35,14.091,.892,22.384,4.75,29.577,13.761,.129,.162,.103,.398-.059,.527-.069,.056-.152,.082-.234,.082Z" style="fill:#FFC9F0;"></path><path d="M338.438,229.288c-.1,0-.2-.04-.273-.118l-2.406-2.566c-.142-.151-.134-.389,.017-.53,.151-.143,.389-.134,.53,.017l2.406,2.566c.142,.151,.134,.389-.017,.53-.072,.068-.165,.102-.257,.102Z" style="fill:#FFC9F0;"></path></g><path d="M329.062,374.936s-4.782-16.669-8.575-19.063c-3.792-2.395-23.405-7.169-24.725-4.724-1.32,2.445,1.416,3.849,1.416,3.849l-6.578,3.429s-.577,1.547,1.441,2.692c0,0-1.233,3.848,.849,4.821,2.082,.973,11.514,1.36,11.514,1.36l-8.707,2.038s-1.715,1.318,3.843,2.805c5.558,1.487,8.398-.391,8.398-.391,0,0,8.645,14.781,14.726,17.051,6.081,2.269,10.214-.823,10.214-.823l-3.816-13.044Z" style="fill:#fdbbb5;"></path></g><path d="M191.809,375.369s10.308-13.944,14.699-14.862c4.39-.917,24.435,1.468,24.816,4.22,.382,2.752-2.672,3.111-2.672,3.111l4.963,5.513s0,1.652-2.291,2.018c0,0-.191,4.037-2.481,4.22-2.291,.184-11.263-2.752-11.263-2.752l7.445,4.954s1.145,1.835-4.582,1.284c-5.727-.55-7.731-3.302-7.731-3.302,0,0-13.267,10.825-19.758,10.825s-10.881-2.202-10.881-2.202l9.736-13.027Z" style="fill:#fdbbb5;"></path></g></svg>
